<svg xmlns="http://www.w3.org/2000/svg" version="1.1" xmlns:xlink="http://www.w3.org/1999/xlink" xmlns:svgjs="http://svgjs.com/svgjs" width="1920" height="1080" preserveAspectRatio="none" viewBox="0 0 1920 1080"><g mask="url(&quot;#SvgjsMask1031&quot;)" fill="none"><rect width="1920" height="1080" x="0" y="0" fill="#0e2a47"></rect><path d="M45.84 -38.77L110.79 -1.27L110.79 73.73L45.84 111.23L-19.11 73.73L-19.11 -1.27zM45.84 186.23L110.79 223.73L110.79 298.73L45.84 336.23L-19.11 298.73L-19.11 223.73zM110.79 298.73L175.75 336.23L175.75 411.23L110.79 448.73L45.84 411.23L45.84 336.23zM45.84 411.23L110.79 448.73L110.79 523.73L45.84 561.23L-19.11 523.73L-19.11 448.73zM45.84 636.23L110.79 673.73L110.79 748.73L45.84 786.23L-19.11 748.73L-19.11 673.73zM110.79 748.73L175.75 786.23L175.75 861.23L110.79 898.73L45.84 861.23L45.84 786.23zM45.84 1086.23L110.79 1123.73L110.79 1198.73L45.84 1236.23L-19.11 1198.73L-19.11 1123.73zM240.7 748.73L305.65 786.23L305.65 861.23L240.7 898.73L175.75 861.23L175.75 786.23zM175.75 861.23L240.7 898.73L240.7 973.73L175.75 1011.23L110.79 973.73L110.79 898.73zM240.7 973.73L305.65 1011.23L305.65 1086.23L240.7 1123.73L175.75 1086.23L175.75 1011.23zM175.75 1086.23L240.7 1123.73L240.7 1198.73L175.75 1236.23L110.79 1198.73L110.79 1123.73zM305.65 -38.77L370.61 -1.27L370.61 73.73L305.65 111.23L240.7 73.73L240.7 -1.27zM305.65 411.23L370.61 448.73L370.61 523.73L305.65 561.23L240.7 523.73L240.7 448.73zM370.61 748.73L435.56 786.23L435.56 861.23L370.61 898.73L305.65 861.23L305.65 786.23zM305.65 1086.23L370.61 1123.73L370.61 1198.73L305.65 1236.23L240.7 1198.73L240.7 1123.73zM435.56 -38.77L500.52 -1.27L500.52 73.73L435.56 111.23L370.61 73.73L370.61 -1.27zM435.56 186.23L500.52 223.73L500.52 298.73L435.56 336.23L370.61 298.73L370.61 223.73zM500.52 298.73L565.47 336.23L565.47 411.23L500.52 448.73L435.56 411.23L435.56 336.23zM435.56 411.23L500.52 448.73L500.52 523.73L435.56 561.23L370.61 523.73L370.61 448.73zM500.52 748.73L565.47 786.23L565.47 861.23L500.52 898.73L435.56 861.23L435.56 786.23zM435.56 861.23L500.52 898.73L500.52 973.73L435.56 1011.23L370.61 973.73L370.61 898.73zM500.52 973.73L565.47 1011.23L565.47 1086.23L500.52 1123.73L435.56 1086.23L435.56 1011.23zM435.56 1086.23L500.52 1123.73L500.52 1198.73L435.56 1236.23L370.61 1198.73L370.61 1123.73zM565.47 -38.77L630.42 -1.27L630.42 73.73L565.47 111.23L500.52 73.73L500.52 -1.27zM630.42 73.73L695.38 111.23L695.38 186.23L630.42 223.73L565.47 186.23L565.47 111.23zM565.47 186.23L630.42 223.73L630.42 298.73L565.47 336.23L500.52 298.73L500.52 223.73zM565.47 411.23L630.42 448.73L630.42 523.73L565.47 561.23L500.52 523.73L500.52 448.73zM630.42 523.73L695.38 561.23L695.38 636.23L630.42 673.73L565.47 636.23L565.47 561.23zM565.47 636.23L630.42 673.73L630.42 748.73L565.47 786.23L500.52 748.73L500.52 673.73zM630.42 973.73L695.38 1011.23L695.38 1086.23L630.42 1123.73L565.47 1086.23L565.47 1011.23zM565.47 1086.23L630.42 1123.73L630.42 1198.73L565.47 1236.23L500.52 1198.73L500.52 1123.73zM760.33 73.73L825.29 111.23L825.29 186.23L760.33 223.73L695.38 186.23L695.38 111.23zM760.33 298.73L825.29 336.23L825.29 411.23L760.33 448.73L695.38 411.23L695.38 336.23zM695.38 411.23L760.33 448.73L760.33 523.73L695.38 561.23L630.42 523.73L630.42 448.73zM760.33 523.73L825.29 561.23L825.29 636.23L760.33 673.73L695.38 636.23L695.38 561.23zM695.38 636.23L760.33 673.73L760.33 748.73L695.38 786.23L630.42 748.73L630.42 673.73zM760.33 748.73L825.29 786.23L825.29 861.23L760.33 898.73L695.38 861.23L695.38 786.23zM760.33 973.73L825.29 1011.23L825.29 1086.23L760.33 1123.73L695.38 1086.23L695.38 1011.23zM890.24 73.73L955.19 111.23L955.19 186.23L890.24 223.73L825.28 186.23L825.28 111.23zM825.28 186.23L890.24 223.73L890.24 298.73L825.28 336.23L760.33 298.73L760.33 223.73zM890.24 298.73L955.19 336.23L955.19 411.23L890.24 448.73L825.28 411.23L825.28 336.23zM890.24 523.73L955.19 561.23L955.19 636.23L890.24 673.73L825.28 636.23L825.28 561.23zM890.24 973.73L955.19 1011.23L955.19 1086.23L890.24 1123.73L825.28 1086.23L825.28 1011.23zM955.19 -38.77L1020.15 -1.27L1020.15 73.73L955.19 111.23L890.24 73.73L890.24 -1.27zM955.19 411.23L1020.15 448.73L1020.15 523.73L955.19 561.23L890.24 523.73L890.24 448.73zM1020.15 523.73L1085.1 561.23L1085.1 636.23L1020.15 673.73L955.19 636.23L955.19 561.23zM955.19 636.23L1020.15 673.73L1020.15 748.73L955.19 786.23L890.24 748.73L890.24 673.73zM1020.15 748.73L1085.1 786.23L1085.1 861.23L1020.15 898.73L955.19 861.23L955.19 786.23zM955.19 1086.23L1020.15 1123.73L1020.15 1198.73L955.19 1236.23L890.24 1198.73L890.24 1123.73zM1085.1 411.23L1150.05 448.73L1150.05 523.73L1085.1 561.23L1020.15 523.73L1020.15 448.73zM1150.05 523.73L1215.01 561.23L1215.01 636.23L1150.05 673.73L1085.1 636.23L1085.1 561.23zM1085.1 636.23L1150.05 673.73L1150.05 748.73L1085.1 786.23L1020.15 748.73L1020.15 673.73zM1085.1 861.23L1150.05 898.73L1150.05 973.73L1085.1 1011.23L1020.15 973.73L1020.15 898.73zM1279.96 73.73L1344.91 111.23L1344.91 186.23L1279.96 223.73L1215.01 186.23L1215.01 111.23zM1279.96 298.73L1344.91 336.23L1344.91 411.23L1279.96 448.73L1215.01 411.23L1215.01 336.23zM1215.01 411.23L1279.96 448.73L1279.96 523.73L1215.01 561.23L1150.05 523.73L1150.05 448.73zM1279.96 523.73L1344.91 561.23L1344.91 636.23L1279.96 673.73L1215.01 636.23L1215.01 561.23zM1279.96 748.73L1344.91 786.23L1344.91 861.23L1279.96 898.73L1215.01 861.23L1215.01 786.23zM1215.01 861.23L1279.96 898.73L1279.96 973.73L1215.01 1011.23L1150.05 973.73L1150.05 898.73zM1344.91 186.23L1409.87 223.73L1409.87 298.73L1344.91 336.23L1279.96 298.73L1279.96 223.73zM1344.91 636.23L1409.87 673.73L1409.87 748.73L1344.91 786.23L1279.96 748.73L1279.96 673.73zM1344.91 1086.23L1409.87 1123.73L1409.87 1198.73L1344.91 1236.23L1279.96 1198.73L1279.96 1123.73zM1474.82 -38.77L1539.78 -1.27L1539.78 73.73L1474.82 111.23L1409.87 73.73L1409.87 -1.27zM1474.82 861.23L1539.78 898.73L1539.78 973.73L1474.82 1011.23L1409.87 973.73L1409.87 898.73zM1474.82 1086.23L1539.78 1123.73L1539.78 1198.73L1474.82 1236.23L1409.87 1198.73L1409.87 1123.73zM1604.73 186.23L1669.68 223.73L1669.68 298.73L1604.73 336.23L1539.78 298.73L1539.78 223.73zM1669.68 298.73L1734.64 336.23L1734.64 411.23L1669.68 448.73L1604.73 411.23L1604.73 336.23zM1604.73 636.23L1669.68 673.73L1669.68 748.73L1604.73 786.23L1539.78 748.73L1539.78 673.73zM1799.59 73.73L1864.54 111.23L1864.54 186.23L1799.59 223.73L1734.64 186.23L1734.64 111.23zM1799.59 298.73L1864.54 336.23L1864.54 411.23L1799.59 448.73L1734.64 411.23L1734.64 336.23zM1734.64 411.23L1799.59 448.73L1799.59 523.73L1734.64 561.23L1669.68 523.73L1669.68 448.73zM1734.64 861.23L1799.59 898.73L1799.59 973.73L1734.64 1011.23L1669.68 973.73L1669.68 898.73zM1734.64 1086.23L1799.59 1123.73L1799.59 1198.73L1734.64 1236.23L1669.68 1198.73L1669.68 1123.73zM1864.54 186.23L1929.5 223.73L1929.5 298.73L1864.54 336.23L1799.59 298.73L1799.59 223.73zM1929.5 748.73L1994.45 786.23L1994.45 861.23L1929.5 898.73L1864.54 861.23L1864.54 786.23zM1929.5 973.73L1994.45 1011.23L1994.45 1086.23L1929.5 1123.73L1864.54 1086.23L1864.54 1011.23zM1864.54 1086.23L1929.5 1123.73L1929.5 1198.73L1864.54 1236.23L1799.59 1198.73L1799.59 1123.73z" stroke="#03305d" stroke-width="2"></path><path d="M38.34 -38.77 a7.5 7.5 0 1 0 15 0 a7.5 7.5 0 1 0 -15 0zM103.29 -1.27 a7.5 7.5 0 1 0 15 0 a7.5 7.5 0 1 0 -15 0zM103.29 73.73 a7.5 7.5 0 1 0 15 0 a7.5 7.5 0 1 0 -15 0zM38.34 111.23 a7.5 7.5 0 1 0 15 0 a7.5 7.5 0 1 0 -15 0zM-26.61 73.73 a7.5 7.5 0 1 0 15 0 a7.5 7.5 0 1 0 -15 0zM-26.61 -1.27 a7.5 7.5 0 1 0 15 0 a7.5 7.5 0 1 0 -15 0zM38.34 186.23 a7.5 7.5 0 1 0 15 0 a7.5 7.5 0 1 0 -15 0zM103.29 223.73 a7.5 7.5 0 1 0 15 0 a7.5 7.5 0 1 0 -15 0zM103.29 298.73 a7.5 7.5 0 1 0 15 0 a7.5 7.5 0 1 0 -15 0zM38.34 336.23 a7.5 7.5 0 1 0 15 0 a7.5 7.5 0 1 0 -15 0zM-26.61 298.73 a7.5 7.5 0 1 0 15 0 a7.5 7.5 0 1 0 -15 0zM-26.61 223.73 a7.5 7.5 0 1 0 15 0 a7.5 7.5 0 1 0 -15 0zM168.25 336.23 a7.5 7.5 0 1 0 15 0 a7.5 7.5 0 1 0 -15 0zM168.25 411.23 a7.5 7.5 0 1 0 15 0 a7.5 7.5 0 1 0 -15 0zM103.29 448.73 a7.5 7.5 0 1 0 15 0 a7.5 7.5 0 1 0 -15 0zM38.34 411.23 a7.5 7.5 0 1 0 15 0 a7.5 7.5 0 1 0 -15 0zM103.29 523.73 a7.5 7.5 0 1 0 15 0 a7.5 7.5 0 1 0 -15 0zM38.34 561.23 a7.5 7.5 0 1 0 15 0 a7.5 7.5 0 1 0 -15 0zM-26.61 523.73 a7.5 7.5 0 1 0 15 0 a7.5 7.5 0 1 0 -15 0zM-26.61 448.73 a7.5 7.5 0 1 0 15 0 a7.5 7.5 0 1 0 -15 0zM38.34 636.23 a7.5 7.5 0 1 0 15 0 a7.5 7.5 0 1 0 -15 0zM103.29 673.73 a7.5 7.5 0 1 0 15 0 a7.5 7.5 0 1 0 -15 0zM103.29 748.73 a7.5 7.5 0 1 0 15 0 a7.5 7.5 0 1 0 -15 0zM38.34 786.23 a7.5 7.5 0 1 0 15 0 a7.5 7.5 0 1 0 -15 0zM-26.61 748.73 a7.5 7.5 0 1 0 15 0 a7.5 7.5 0 1 0 -15 0zM-26.61 673.73 a7.5 7.5 0 1 0 15 0 a7.5 7.5 0 1 0 -15 0zM168.25 786.23 a7.5 7.5 0 1 0 15 0 a7.5 7.5 0 1 0 -15 0zM168.25 861.23 a7.5 7.5 0 1 0 15 0 a7.5 7.5 0 1 0 -15 0zM103.29 898.73 a7.5 7.5 0 1 0 15 0 a7.5 7.5 0 1 0 -15 0zM38.34 861.23 a7.5 7.5 0 1 0 15 0 a7.5 7.5 0 1 0 -15 0zM38.34 1086.23 a7.5 7.5 0 1 0 15 0 a7.5 7.5 0 1 0 -15 0zM103.29 1123.73 a7.5 7.5 0 1 0 15 0 a7.5 7.5 0 1 0 -15 0zM103.29 1198.73 a7.5 7.5 0 1 0 15 0 a7.5 7.5 0 1 0 -15 0zM38.34 1236.23 a7.5 7.5 0 1 0 15 0 a7.5 7.5 0 1 0 -15 0zM-26.61 1198.73 a7.5 7.5 0 1 0 15 0 a7.5 7.5 0 1 0 -15 0zM-26.61 1123.73 a7.5 7.5 0 1 0 15 0 a7.5 7.5 0 1 0 -15 0zM233.2 748.73 a7.5 7.5 0 1 0 15 0 a7.5 7.5 0 1 0 -15 0zM298.15 786.23 a7.5 7.5 0 1 0 15 0 a7.5 7.5 0 1 0 -15 0zM298.15 861.23 a7.5 7.5 0 1 0 15 0 a7.5 7.5 0 1 0 -15 0zM233.2 898.73 a7.5 7.5 0 1 0 15 0 a7.5 7.5 0 1 0 -15 0zM233.2 973.73 a7.5 7.5 0 1 0 15 0 a7.5 7.5 0 1 0 -15 0zM168.25 1011.23 a7.5 7.5 0 1 0 15 0 a7.5 7.5 0 1 0 -15 0zM103.29 973.73 a7.5 7.5 0 1 0 15 0 a7.5 7.5 0 1 0 -15 0zM298.15 1011.23 a7.5 7.5 0 1 0 15 0 a7.5 7.5 0 1 0 -15 0zM298.15 1086.23 a7.5 7.5 0 1 0 15 0 a7.5 7.5 0 1 0 -15 0zM233.2 1123.73 a7.5 7.5 0 1 0 15 0 a7.5 7.5 0 1 0 -15 0zM168.25 1086.23 a7.5 7.5 0 1 0 15 0 a7.5 7.5 0 1 0 -15 0zM233.2 1198.73 a7.5 7.5 0 1 0 15 0 a7.5 7.5 0 1 0 -15 0zM168.25 1236.23 a7.5 7.5 0 1 0 15 0 a7.5 7.5 0 1 0 -15 0zM298.15 -38.77 a7.5 7.5 0 1 0 15 0 a7.5 7.5 0 1 0 -15 0zM363.11 -1.27 a7.5 7.5 0 1 0 15 0 a7.5 7.5 0 1 0 -15 0zM363.11 73.73 a7.5 7.5 0 1 0 15 0 a7.5 7.5 0 1 0 -15 0zM298.15 111.23 a7.5 7.5 0 1 0 15 0 a7.5 7.5 0 1 0 -15 0zM233.2 73.73 a7.5 7.5 0 1 0 15 0 a7.5 7.5 0 1 0 -15 0zM233.2 -1.27 a7.5 7.5 0 1 0 15 0 a7.5 7.5 0 1 0 -15 0zM298.15 411.23 a7.5 7.5 0 1 0 15 0 a7.5 7.5 0 1 0 -15 0zM363.11 448.73 a7.5 7.5 0 1 0 15 0 a7.5 7.5 0 1 0 -15 0zM363.11 523.73 a7.5 7.5 0 1 0 15 0 a7.5 7.5 0 1 0 -15 0zM298.15 561.23 a7.5 7.5 0 1 0 15 0 a7.5 7.5 0 1 0 -15 0zM233.2 523.73 a7.5 7.5 0 1 0 15 0 a7.5 7.5 0 1 0 -15 0zM233.2 448.73 a7.5 7.5 0 1 0 15 0 a7.5 7.5 0 1 0 -15 0zM363.11 748.73 a7.5 7.5 0 1 0 15 0 a7.5 7.5 0 1 0 -15 0zM428.06 786.23 a7.5 7.5 0 1 0 15 0 a7.5 7.5 0 1 0 -15 0zM428.06 861.23 a7.5 7.5 0 1 0 15 0 a7.5 7.5 0 1 0 -15 0zM363.11 898.73 a7.5 7.5 0 1 0 15 0 a7.5 7.5 0 1 0 -15 0zM363.11 1123.73 a7.5 7.5 0 1 0 15 0 a7.5 7.5 0 1 0 -15 0zM363.11 1198.73 a7.5 7.5 0 1 0 15 0 a7.5 7.5 0 1 0 -15 0zM298.15 1236.23 a7.5 7.5 0 1 0 15 0 a7.5 7.5 0 1 0 -15 0zM428.06 -38.77 a7.5 7.5 0 1 0 15 0 a7.5 7.5 0 1 0 -15 0zM493.02 -1.27 a7.5 7.5 0 1 0 15 0 a7.5 7.5 0 1 0 -15 0zM493.02 73.73 a7.5 7.5 0 1 0 15 0 a7.5 7.5 0 1 0 -15 0zM428.06 111.23 a7.5 7.5 0 1 0 15 0 a7.5 7.5 0 1 0 -15 0zM428.06 186.23 a7.5 7.5 0 1 0 15 0 a7.5 7.5 0 1 0 -15 0zM493.02 223.73 a7.5 7.5 0 1 0 15 0 a7.5 7.5 0 1 0 -15 0zM493.02 298.73 a7.5 7.5 0 1 0 15 0 a7.5 7.5 0 1 0 -15 0zM428.06 336.23 a7.5 7.5 0 1 0 15 0 a7.5 7.5 0 1 0 -15 0zM363.11 298.73 a7.5 7.5 0 1 0 15 0 a7.5 7.5 0 1 0 -15 0zM363.11 223.73 a7.5 7.5 0 1 0 15 0 a7.5 7.5 0 1 0 -15 0zM557.97 336.23 a7.5 7.5 0 1 0 15 0 a7.5 7.5 0 1 0 -15 0zM557.97 411.23 a7.5 7.5 0 1 0 15 0 a7.5 7.5 0 1 0 -15 0zM493.02 448.73 a7.5 7.5 0 1 0 15 0 a7.5 7.5 0 1 0 -15 0zM428.06 411.23 a7.5 7.5 0 1 0 15 0 a7.5 7.5 0 1 0 -15 0zM493.02 523.73 a7.5 7.5 0 1 0 15 0 a7.5 7.5 0 1 0 -15 0zM428.06 561.23 a7.5 7.5 0 1 0 15 0 a7.5 7.5 0 1 0 -15 0zM493.02 748.73 a7.5 7.5 0 1 0 15 0 a7.5 7.5 0 1 0 -15 0zM557.97 786.23 a7.5 7.5 0 1 0 15 0 a7.5 7.5 0 1 0 -15 0zM557.97 861.23 a7.5 7.5 0 1 0 15 0 a7.5 7.5 0 1 0 -15 0zM493.02 898.73 a7.5 7.5 0 1 0 15 0 a7.5 7.5 0 1 0 -15 0zM493.02 973.73 a7.5 7.5 0 1 0 15 0 a7.5 7.5 0 1 0 -15 0zM428.06 1011.23 a7.5 7.5 0 1 0 15 0 a7.5 7.5 0 1 0 -15 0zM363.11 973.73 a7.5 7.5 0 1 0 15 0 a7.5 7.5 0 1 0 -15 0zM557.97 1011.23 a7.5 7.5 0 1 0 15 0 a7.5 7.5 0 1 0 -15 0zM557.97 1086.23 a7.5 7.5 0 1 0 15 0 a7.5 7.5 0 1 0 -15 0zM493.02 1123.73 a7.5 7.5 0 1 0 15 0 a7.5 7.5 0 1 0 -15 0zM428.06 1086.23 a7.5 7.5 0 1 0 15 0 a7.5 7.5 0 1 0 -15 0zM493.02 1198.73 a7.5 7.5 0 1 0 15 0 a7.5 7.5 0 1 0 -15 0zM428.06 1236.23 a7.5 7.5 0 1 0 15 0 a7.5 7.5 0 1 0 -15 0zM557.97 -38.77 a7.5 7.5 0 1 0 15 0 a7.5 7.5 0 1 0 -15 0zM622.92 -1.27 a7.5 7.5 0 1 0 15 0 a7.5 7.5 0 1 0 -15 0zM622.92 73.73 a7.5 7.5 0 1 0 15 0 a7.5 7.5 0 1 0 -15 0zM557.97 111.23 a7.5 7.5 0 1 0 15 0 a7.5 7.5 0 1 0 -15 0zM687.88 111.23 a7.5 7.5 0 1 0 15 0 a7.5 7.5 0 1 0 -15 0zM687.88 186.23 a7.5 7.5 0 1 0 15 0 a7.5 7.5 0 1 0 -15 0zM622.92 223.73 a7.5 7.5 0 1 0 15 0 a7.5 7.5 0 1 0 -15 0zM557.97 186.23 a7.5 7.5 0 1 0 15 0 a7.5 7.5 0 1 0 -15 0zM622.92 298.73 a7.5 7.5 0 1 0 15 0 a7.5 7.5 0 1 0 -15 0zM622.92 448.73 a7.5 7.5 0 1 0 15 0 a7.5 7.5 0 1 0 -15 0zM622.92 523.73 a7.5 7.5 0 1 0 15 0 a7.5 7.5 0 1 0 -15 0zM557.97 561.23 a7.5 7.5 0 1 0 15 0 a7.5 7.5 0 1 0 -15 0zM687.88 561.23 a7.5 7.5 0 1 0 15 0 a7.5 7.5 0 1 0 -15 0zM687.88 636.23 a7.5 7.5 0 1 0 15 0 a7.5 7.5 0 1 0 -15 0zM622.92 673.73 a7.5 7.5 0 1 0 15 0 a7.5 7.5 0 1 0 -15 0zM557.97 636.23 a7.5 7.5 0 1 0 15 0 a7.5 7.5 0 1 0 -15 0zM622.92 748.73 a7.5 7.5 0 1 0 15 0 a7.5 7.5 0 1 0 -15 0zM493.02 673.73 a7.5 7.5 0 1 0 15 0 a7.5 7.5 0 1 0 -15 0zM622.92 973.73 a7.5 7.5 0 1 0 15 0 a7.5 7.5 0 1 0 -15 0zM687.88 1011.23 a7.5 7.5 0 1 0 15 0 a7.5 7.5 0 1 0 -15 0zM687.88 1086.23 a7.5 7.5 0 1 0 15 0 a7.5 7.5 0 1 0 -15 0zM622.92 1123.73 a7.5 7.5 0 1 0 15 0 a7.5 7.5 0 1 0 -15 0zM622.92 1198.73 a7.5 7.5 0 1 0 15 0 a7.5 7.5 0 1 0 -15 0zM557.97 1236.23 a7.5 7.5 0 1 0 15 0 a7.5 7.5 0 1 0 -15 0zM752.83 73.73 a7.5 7.5 0 1 0 15 0 a7.5 7.5 0 1 0 -15 0zM817.79 111.23 a7.5 7.5 0 1 0 15 0 a7.5 7.5 0 1 0 -15 0zM817.79 186.23 a7.5 7.5 0 1 0 15 0 a7.5 7.5 0 1 0 -15 0zM752.83 223.73 a7.5 7.5 0 1 0 15 0 a7.5 7.5 0 1 0 -15 0zM752.83 298.73 a7.5 7.5 0 1 0 15 0 a7.5 7.5 0 1 0 -15 0zM817.79 336.23 a7.5 7.5 0 1 0 15 0 a7.5 7.5 0 1 0 -15 0zM817.79 411.23 a7.5 7.5 0 1 0 15 0 a7.5 7.5 0 1 0 -15 0zM752.83 448.73 a7.5 7.5 0 1 0 15 0 a7.5 7.5 0 1 0 -15 0zM687.88 411.23 a7.5 7.5 0 1 0 15 0 a7.5 7.5 0 1 0 -15 0zM687.88 336.23 a7.5 7.5 0 1 0 15 0 a7.5 7.5 0 1 0 -15 0zM752.83 523.73 a7.5 7.5 0 1 0 15 0 a7.5 7.5 0 1 0 -15 0zM817.79 561.23 a7.5 7.5 0 1 0 15 0 a7.5 7.5 0 1 0 -15 0zM817.79 636.23 a7.5 7.5 0 1 0 15 0 a7.5 7.5 0 1 0 -15 0zM752.83 673.73 a7.5 7.5 0 1 0 15 0 a7.5 7.5 0 1 0 -15 0zM752.83 748.73 a7.5 7.5 0 1 0 15 0 a7.5 7.5 0 1 0 -15 0zM687.88 786.23 a7.5 7.5 0 1 0 15 0 a7.5 7.5 0 1 0 -15 0zM817.79 786.23 a7.5 7.5 0 1 0 15 0 a7.5 7.5 0 1 0 -15 0zM817.79 861.23 a7.5 7.5 0 1 0 15 0 a7.5 7.5 0 1 0 -15 0zM752.83 898.73 a7.5 7.5 0 1 0 15 0 a7.5 7.5 0 1 0 -15 0zM687.88 861.23 a7.5 7.5 0 1 0 15 0 a7.5 7.5 0 1 0 -15 0zM752.83 973.73 a7.5 7.5 0 1 0 15 0 a7.5 7.5 0 1 0 -15 0zM817.79 1011.23 a7.5 7.5 0 1 0 15 0 a7.5 7.5 0 1 0 -15 0zM817.79 1086.23 a7.5 7.5 0 1 0 15 0 a7.5 7.5 0 1 0 -15 0zM752.83 1123.73 a7.5 7.5 0 1 0 15 0 a7.5 7.5 0 1 0 -15 0zM882.74 73.73 a7.5 7.5 0 1 0 15 0 a7.5 7.5 0 1 0 -15 0zM947.69 111.23 a7.5 7.5 0 1 0 15 0 a7.5 7.5 0 1 0 -15 0zM947.69 186.23 a7.5 7.5 0 1 0 15 0 a7.5 7.5 0 1 0 -15 0zM882.74 223.73 a7.5 7.5 0 1 0 15 0 a7.5 7.5 0 1 0 -15 0zM817.78 186.23 a7.5 7.5 0 1 0 15 0 a7.5 7.5 0 1 0 -15 0zM817.78 111.23 a7.5 7.5 0 1 0 15 0 a7.5 7.5 0 1 0 -15 0zM882.74 298.73 a7.5 7.5 0 1 0 15 0 a7.5 7.5 0 1 0 -15 0zM817.78 336.23 a7.5 7.5 0 1 0 15 0 a7.5 7.5 0 1 0 -15 0zM947.69 336.23 a7.5 7.5 0 1 0 15 0 a7.5 7.5 0 1 0 -15 0zM947.69 411.23 a7.5 7.5 0 1 0 15 0 a7.5 7.5 0 1 0 -15 0zM882.74 448.73 a7.5 7.5 0 1 0 15 0 a7.5 7.5 0 1 0 -15 0zM817.78 411.23 a7.5 7.5 0 1 0 15 0 a7.5 7.5 0 1 0 -15 0zM882.74 523.73 a7.5 7.5 0 1 0 15 0 a7.5 7.5 0 1 0 -15 0zM947.69 561.23 a7.5 7.5 0 1 0 15 0 a7.5 7.5 0 1 0 -15 0zM947.69 636.23 a7.5 7.5 0 1 0 15 0 a7.5 7.5 0 1 0 -15 0zM882.74 673.73 a7.5 7.5 0 1 0 15 0 a7.5 7.5 0 1 0 -15 0zM817.78 636.23 a7.5 7.5 0 1 0 15 0 a7.5 7.5 0 1 0 -15 0zM817.78 561.23 a7.5 7.5 0 1 0 15 0 a7.5 7.5 0 1 0 -15 0zM882.74 973.73 a7.5 7.5 0 1 0 15 0 a7.5 7.5 0 1 0 -15 0zM947.69 1011.23 a7.5 7.5 0 1 0 15 0 a7.5 7.5 0 1 0 -15 0zM947.69 1086.23 a7.5 7.5 0 1 0 15 0 a7.5 7.5 0 1 0 -15 0zM882.74 1123.73 a7.5 7.5 0 1 0 15 0 a7.5 7.5 0 1 0 -15 0zM817.78 1086.23 a7.5 7.5 0 1 0 15 0 a7.5 7.5 0 1 0 -15 0zM817.78 1011.23 a7.5 7.5 0 1 0 15 0 a7.5 7.5 0 1 0 -15 0zM947.69 -38.77 a7.5 7.5 0 1 0 15 0 a7.5 7.5 0 1 0 -15 0zM1012.65 -1.27 a7.5 7.5 0 1 0 15 0 a7.5 7.5 0 1 0 -15 0zM1012.65 73.73 a7.5 7.5 0 1 0 15 0 a7.5 7.5 0 1 0 -15 0zM882.74 -1.27 a7.5 7.5 0 1 0 15 0 a7.5 7.5 0 1 0 -15 0zM1012.65 448.73 a7.5 7.5 0 1 0 15 0 a7.5 7.5 0 1 0 -15 0zM1012.65 523.73 a7.5 7.5 0 1 0 15 0 a7.5 7.5 0 1 0 -15 0zM1077.6 561.23 a7.5 7.5 0 1 0 15 0 a7.5 7.5 0 1 0 -15 0zM1077.6 636.23 a7.5 7.5 0 1 0 15 0 a7.5 7.5 0 1 0 -15 0zM1012.65 673.73 a7.5 7.5 0 1 0 15 0 a7.5 7.5 0 1 0 -15 0zM1012.65 748.73 a7.5 7.5 0 1 0 15 0 a7.5 7.5 0 1 0 -15 0zM947.69 786.23 a7.5 7.5 0 1 0 15 0 a7.5 7.5 0 1 0 -15 0zM882.74 748.73 a7.5 7.5 0 1 0 15 0 a7.5 7.5 0 1 0 -15 0zM1077.6 786.23 a7.5 7.5 0 1 0 15 0 a7.5 7.5 0 1 0 -15 0zM1077.6 861.23 a7.5 7.5 0 1 0 15 0 a7.5 7.5 0 1 0 -15 0zM1012.65 898.73 a7.5 7.5 0 1 0 15 0 a7.5 7.5 0 1 0 -15 0zM947.69 861.23 a7.5 7.5 0 1 0 15 0 a7.5 7.5 0 1 0 -15 0zM1012.65 1123.73 a7.5 7.5 0 1 0 15 0 a7.5 7.5 0 1 0 -15 0zM1012.65 1198.73 a7.5 7.5 0 1 0 15 0 a7.5 7.5 0 1 0 -15 0zM947.69 1236.23 a7.5 7.5 0 1 0 15 0 a7.5 7.5 0 1 0 -15 0zM882.74 1198.73 a7.5 7.5 0 1 0 15 0 a7.5 7.5 0 1 0 -15 0zM1077.6 411.23 a7.5 7.5 0 1 0 15 0 a7.5 7.5 0 1 0 -15 0zM1142.55 448.73 a7.5 7.5 0 1 0 15 0 a7.5 7.5 0 1 0 -15 0zM1142.55 523.73 a7.5 7.5 0 1 0 15 0 a7.5 7.5 0 1 0 -15 0zM1207.51 561.23 a7.5 7.5 0 1 0 15 0 a7.5 7.5 0 1 0 -15 0zM1207.51 636.23 a7.5 7.5 0 1 0 15 0 a7.5 7.5 0 1 0 -15 0zM1142.55 673.73 a7.5 7.5 0 1 0 15 0 a7.5 7.5 0 1 0 -15 0zM1142.55 748.73 a7.5 7.5 0 1 0 15 0 a7.5 7.5 0 1 0 -15 0zM1142.55 898.73 a7.5 7.5 0 1 0 15 0 a7.5 7.5 0 1 0 -15 0zM1142.55 973.73 a7.5 7.5 0 1 0 15 0 a7.5 7.5 0 1 0 -15 0zM1077.6 1011.23 a7.5 7.5 0 1 0 15 0 a7.5 7.5 0 1 0 -15 0zM1012.65 973.73 a7.5 7.5 0 1 0 15 0 a7.5 7.5 0 1 0 -15 0zM1272.46 73.73 a7.5 7.5 0 1 0 15 0 a7.5 7.5 0 1 0 -15 0zM1337.41 111.23 a7.5 7.5 0 1 0 15 0 a7.5 7.5 0 1 0 -15 0zM1337.41 186.23 a7.5 7.5 0 1 0 15 0 a7.5 7.5 0 1 0 -15 0zM1272.46 223.73 a7.5 7.5 0 1 0 15 0 a7.5 7.5 0 1 0 -15 0zM1207.51 186.23 a7.5 7.5 0 1 0 15 0 a7.5 7.5 0 1 0 -15 0zM1207.51 111.23 a7.5 7.5 0 1 0 15 0 a7.5 7.5 0 1 0 -15 0zM1272.46 298.73 a7.5 7.5 0 1 0 15 0 a7.5 7.5 0 1 0 -15 0zM1337.41 336.23 a7.5 7.5 0 1 0 15 0 a7.5 7.5 0 1 0 -15 0zM1337.41 411.23 a7.5 7.5 0 1 0 15 0 a7.5 7.5 0 1 0 -15 0zM1272.46 448.73 a7.5 7.5 0 1 0 15 0 a7.5 7.5 0 1 0 -15 0zM1207.51 411.23 a7.5 7.5 0 1 0 15 0 a7.5 7.5 0 1 0 -15 0zM1207.51 336.23 a7.5 7.5 0 1 0 15 0 a7.5 7.5 0 1 0 -15 0zM1272.46 523.73 a7.5 7.5 0 1 0 15 0 a7.5 7.5 0 1 0 -15 0zM1337.41 561.23 a7.5 7.5 0 1 0 15 0 a7.5 7.5 0 1 0 -15 0zM1337.41 636.23 a7.5 7.5 0 1 0 15 0 a7.5 7.5 0 1 0 -15 0zM1272.46 673.73 a7.5 7.5 0 1 0 15 0 a7.5 7.5 0 1 0 -15 0zM1272.46 748.73 a7.5 7.5 0 1 0 15 0 a7.5 7.5 0 1 0 -15 0zM1337.41 786.23 a7.5 7.5 0 1 0 15 0 a7.5 7.5 0 1 0 -15 0zM1337.41 861.23 a7.5 7.5 0 1 0 15 0 a7.5 7.5 0 1 0 -15 0zM1272.46 898.73 a7.5 7.5 0 1 0 15 0 a7.5 7.5 0 1 0 -15 0zM1207.51 861.23 a7.5 7.5 0 1 0 15 0 a7.5 7.5 0 1 0 -15 0zM1207.51 786.23 a7.5 7.5 0 1 0 15 0 a7.5 7.5 0 1 0 -15 0zM1272.46 973.73 a7.5 7.5 0 1 0 15 0 a7.5 7.5 0 1 0 -15 0zM1207.51 1011.23 a7.5 7.5 0 1 0 15 0 a7.5 7.5 0 1 0 -15 0zM1402.37 223.73 a7.5 7.5 0 1 0 15 0 a7.5 7.5 0 1 0 -15 0zM1402.37 298.73 a7.5 7.5 0 1 0 15 0 a7.5 7.5 0 1 0 -15 0zM1402.37 673.73 a7.5 7.5 0 1 0 15 0 a7.5 7.5 0 1 0 -15 0zM1402.37 748.73 a7.5 7.5 0 1 0 15 0 a7.5 7.5 0 1 0 -15 0zM1337.41 1086.23 a7.5 7.5 0 1 0 15 0 a7.5 7.5 0 1 0 -15 0zM1402.37 1123.73 a7.5 7.5 0 1 0 15 0 a7.5 7.5 0 1 0 -15 0zM1402.37 1198.73 a7.5 7.5 0 1 0 15 0 a7.5 7.5 0 1 0 -15 0zM1337.41 1236.23 a7.5 7.5 0 1 0 15 0 a7.5 7.5 0 1 0 -15 0zM1272.46 1198.73 a7.5 7.5 0 1 0 15 0 a7.5 7.5 0 1 0 -15 0zM1272.46 1123.73 a7.5 7.5 0 1 0 15 0 a7.5 7.5 0 1 0 -15 0zM1467.32 -38.77 a7.5 7.5 0 1 0 15 0 a7.5 7.5 0 1 0 -15 0zM1532.28 -1.27 a7.5 7.5 0 1 0 15 0 a7.5 7.5 0 1 0 -15 0zM1532.28 73.73 a7.5 7.5 0 1 0 15 0 a7.5 7.5 0 1 0 -15 0zM1467.32 111.23 a7.5 7.5 0 1 0 15 0 a7.5 7.5 0 1 0 -15 0zM1402.37 73.73 a7.5 7.5 0 1 0 15 0 a7.5 7.5 0 1 0 -15 0zM1402.37 -1.27 a7.5 7.5 0 1 0 15 0 a7.5 7.5 0 1 0 -15 0zM1467.32 861.23 a7.5 7.5 0 1 0 15 0 a7.5 7.5 0 1 0 -15 0zM1532.28 898.73 a7.5 7.5 0 1 0 15 0 a7.5 7.5 0 1 0 -15 0zM1532.28 973.73 a7.5 7.5 0 1 0 15 0 a7.5 7.5 0 1 0 -15 0zM1467.32 1011.23 a7.5 7.5 0 1 0 15 0 a7.5 7.5 0 1 0 -15 0zM1402.37 973.73 a7.5 7.5 0 1 0 15 0 a7.5 7.5 0 1 0 -15 0zM1402.37 898.73 a7.5 7.5 0 1 0 15 0 a7.5 7.5 0 1 0 -15 0zM1467.32 1086.23 a7.5 7.5 0 1 0 15 0 a7.5 7.5 0 1 0 -15 0zM1532.28 1123.73 a7.5 7.5 0 1 0 15 0 a7.5 7.5 0 1 0 -15 0zM1532.28 1198.73 a7.5 7.5 0 1 0 15 0 a7.5 7.5 0 1 0 -15 0zM1467.32 1236.23 a7.5 7.5 0 1 0 15 0 a7.5 7.5 0 1 0 -15 0zM1597.23 186.23 a7.5 7.5 0 1 0 15 0 a7.5 7.5 0 1 0 -15 0zM1662.18 223.73 a7.5 7.5 0 1 0 15 0 a7.5 7.5 0 1 0 -15 0zM1662.18 298.73 a7.5 7.5 0 1 0 15 0 a7.5 7.5 0 1 0 -15 0zM1597.23 336.23 a7.5 7.5 0 1 0 15 0 a7.5 7.5 0 1 0 -15 0zM1532.28 298.73 a7.5 7.5 0 1 0 15 0 a7.5 7.5 0 1 0 -15 0zM1532.28 223.73 a7.5 7.5 0 1 0 15 0 a7.5 7.5 0 1 0 -15 0zM1727.14 336.23 a7.5 7.5 0 1 0 15 0 a7.5 7.5 0 1 0 -15 0zM1727.14 411.23 a7.5 7.5 0 1 0 15 0 a7.5 7.5 0 1 0 -15 0zM1662.18 448.73 a7.5 7.5 0 1 0 15 0 a7.5 7.5 0 1 0 -15 0zM1597.23 411.23 a7.5 7.5 0 1 0 15 0 a7.5 7.5 0 1 0 -15 0zM1597.23 636.23 a7.5 7.5 0 1 0 15 0 a7.5 7.5 0 1 0 -15 0zM1662.18 673.73 a7.5 7.5 0 1 0 15 0 a7.5 7.5 0 1 0 -15 0zM1662.18 748.73 a7.5 7.5 0 1 0 15 0 a7.5 7.5 0 1 0 -15 0zM1597.23 786.23 a7.5 7.5 0 1 0 15 0 a7.5 7.5 0 1 0 -15 0zM1532.28 748.73 a7.5 7.5 0 1 0 15 0 a7.5 7.5 0 1 0 -15 0zM1532.28 673.73 a7.5 7.5 0 1 0 15 0 a7.5 7.5 0 1 0 -15 0zM1792.09 73.73 a7.5 7.5 0 1 0 15 0 a7.5 7.5 0 1 0 -15 0zM1857.04 111.23 a7.5 7.5 0 1 0 15 0 a7.5 7.5 0 1 0 -15 0zM1857.04 186.23 a7.5 7.5 0 1 0 15 0 a7.5 7.5 0 1 0 -15 0zM1792.09 223.73 a7.5 7.5 0 1 0 15 0 a7.5 7.5 0 1 0 -15 0zM1727.14 186.23 a7.5 7.5 0 1 0 15 0 a7.5 7.5 0 1 0 -15 0zM1727.14 111.23 a7.5 7.5 0 1 0 15 0 a7.5 7.5 0 1 0 -15 0zM1792.09 298.73 a7.5 7.5 0 1 0 15 0 a7.5 7.5 0 1 0 -15 0zM1857.04 336.23 a7.5 7.5 0 1 0 15 0 a7.5 7.5 0 1 0 -15 0zM1857.04 411.23 a7.5 7.5 0 1 0 15 0 a7.5 7.5 0 1 0 -15 0zM1792.09 448.73 a7.5 7.5 0 1 0 15 0 a7.5 7.5 0 1 0 -15 0zM1792.09 523.73 a7.5 7.5 0 1 0 15 0 a7.5 7.5 0 1 0 -15 0zM1727.14 561.23 a7.5 7.5 0 1 0 15 0 a7.5 7.5 0 1 0 -15 0zM1662.18 523.73 a7.5 7.5 0 1 0 15 0 a7.5 7.5 0 1 0 -15 0zM1727.14 861.23 a7.5 7.5 0 1 0 15 0 a7.5 7.5 0 1 0 -15 0zM1792.09 898.73 a7.5 7.5 0 1 0 15 0 a7.5 7.5 0 1 0 -15 0zM1792.09 973.73 a7.5 7.5 0 1 0 15 0 a7.5 7.5 0 1 0 -15 0zM1727.14 1011.23 a7.5 7.5 0 1 0 15 0 a7.5 7.5 0 1 0 -15 0zM1662.18 973.73 a7.5 7.5 0 1 0 15 0 a7.5 7.5 0 1 0 -15 0zM1662.18 898.73 a7.5 7.5 0 1 0 15 0 a7.5 7.5 0 1 0 -15 0zM1727.14 1086.23 a7.5 7.5 0 1 0 15 0 a7.5 7.5 0 1 0 -15 0zM1792.09 1123.73 a7.5 7.5 0 1 0 15 0 a7.5 7.5 0 1 0 -15 0zM1792.09 1198.73 a7.5 7.5 0 1 0 15 0 a7.5 7.5 0 1 0 -15 0zM1727.14 1236.23 a7.5 7.5 0 1 0 15 0 a7.5 7.5 0 1 0 -15 0zM1662.18 1198.73 a7.5 7.5 0 1 0 15 0 a7.5 7.5 0 1 0 -15 0zM1662.18 1123.73 a7.5 7.5 0 1 0 15 0 a7.5 7.5 0 1 0 -15 0zM1922 223.73 a7.5 7.5 0 1 0 15 0 a7.5 7.5 0 1 0 -15 0zM1922 298.73 a7.5 7.5 0 1 0 15 0 a7.5 7.5 0 1 0 -15 0zM1922 748.73 a7.5 7.5 0 1 0 15 0 a7.5 7.5 0 1 0 -15 0zM1986.95 786.23 a7.5 7.5 0 1 0 15 0 a7.5 7.5 0 1 0 -15 0zM1986.95 861.23 a7.5 7.5 0 1 0 15 0 a7.5 7.5 0 1 0 -15 0zM1922 898.73 a7.5 7.5 0 1 0 15 0 a7.5 7.5 0 1 0 -15 0zM1857.04 861.23 a7.5 7.5 0 1 0 15 0 a7.5 7.5 0 1 0 -15 0zM1857.04 786.23 a7.5 7.5 0 1 0 15 0 a7.5 7.5 0 1 0 -15 0zM1922 973.73 a7.5 7.5 0 1 0 15 0 a7.5 7.5 0 1 0 -15 0zM1986.95 1011.23 a7.5 7.5 0 1 0 15 0 a7.5 7.5 0 1 0 -15 0zM1986.95 1086.23 a7.5 7.5 0 1 0 15 0 a7.5 7.5 0 1 0 -15 0zM1922 1123.73 a7.5 7.5 0 1 0 15 0 a7.5 7.5 0 1 0 -15 0zM1857.04 1086.23 a7.5 7.5 0 1 0 15 0 a7.5 7.5 0 1 0 -15 0zM1857.04 1011.23 a7.5 7.5 0 1 0 15 0 a7.5 7.5 0 1 0 -15 0zM1922 1198.73 a7.5 7.5 0 1 0 15 0 a7.5 7.5 0 1 0 -15 0zM1857.04 1236.23 a7.5 7.5 0 1 0 15 0 a7.5 7.5 0 1 0 -15 0z" fill="#03305d"></path><path d="M84.43 66.05L127.74 91.05L127.74 141.05L84.43 166.05L41.13 141.05L41.13 91.05zM41.13 591.05L84.43 616.05L84.43 666.05L41.13 691.05L-2.17 666.05L-2.17 616.05zM41.13 741.05L84.43 766.05L84.43 816.05L41.13 841.05L-2.17 816.05L-2.17 766.05zM171.04 816.05L214.34 841.05L214.34 891.05L171.04 916.05L127.74 891.05L127.74 841.05zM127.74 891.05L171.04 916.05L171.04 966.05L127.74 991.05L84.43 966.05L84.43 916.05zM171.04 966.05L214.34 991.05L214.34 1041.05L171.04 1066.05L127.74 1041.05L127.74 991.05zM257.64 66.05L300.94 91.05L300.94 141.05L257.64 166.05L214.34 141.05L214.34 91.05zM214.34 141.05L257.64 166.05L257.64 216.05L214.34 241.05L171.04 216.05L171.04 166.05zM257.64 366.05L300.94 391.05L300.94 441.05L257.64 466.05L214.34 441.05L214.34 391.05zM344.25 216.05L387.55 241.05L387.55 291.05L344.25 316.05L300.94 291.05L300.94 241.05zM344.25 666.05L387.55 691.05L387.55 741.05L344.25 766.05L300.94 741.05L300.94 691.05zM430.85 66.05L474.16 91.05L474.16 141.05L430.85 166.05L387.55 141.05L387.55 91.05zM387.55 291.05L430.85 316.05L430.85 366.05L387.55 391.05L344.25 366.05L344.25 316.05zM387.55 441.05L430.85 466.05L430.85 516.05L387.55 541.05L344.25 516.05L344.25 466.05zM387.55 591.05L430.85 616.05L430.85 666.05L387.55 691.05L344.25 666.05L344.25 616.05zM430.85 666.05L474.16 691.05L474.16 741.05L430.85 766.05L387.55 741.05L387.55 691.05zM430.85 966.05L474.16 991.05L474.16 1041.05L430.85 1066.05L387.55 1041.05L387.55 991.05zM517.46 216.05L560.76 241.05L560.76 291.05L517.46 316.05L474.16 291.05L474.16 241.05zM474.16 291.05L517.46 316.05L517.46 366.05L474.16 391.05L430.85 366.05L430.85 316.05zM517.46 516.05L560.76 541.05L560.76 591.05L517.46 616.05L474.16 591.05L474.16 541.05zM474.16 591.05L517.46 616.05L517.46 666.05L474.16 691.05L430.85 666.05L430.85 616.05zM517.46 666.05L560.76 691.05L560.76 741.05L517.46 766.05L474.16 741.05L474.16 691.05zM517.46 816.05L560.76 841.05L560.76 891.05L517.46 916.05L474.16 891.05L474.16 841.05zM604.06 66.05L647.37 91.05L647.37 141.05L604.06 166.05L560.76 141.05L560.76 91.05zM604.06 216.05L647.37 241.05L647.37 291.05L604.06 316.05L560.76 291.05L560.76 241.05zM560.76 291.05L604.06 316.05L604.06 366.05L560.76 391.05L517.46 366.05L517.46 316.05zM604.06 516.05L647.37 541.05L647.37 591.05L604.06 616.05L560.76 591.05L560.76 541.05zM560.76 591.05L604.06 616.05L604.06 666.05L560.76 691.05L517.46 666.05L517.46 616.05zM560.76 741.05L604.06 766.05L604.06 816.05L560.76 841.05L517.46 816.05L517.46 766.05zM604.06 816.05L647.37 841.05L647.37 891.05L604.06 916.05L560.76 891.05L560.76 841.05zM560.76 1041.05L604.06 1066.05L604.06 1116.05L560.76 1141.05L517.46 1116.05L517.46 1066.05zM690.67 66.05L733.97 91.05L733.97 141.05L690.67 166.05L647.37 141.05L647.37 91.05zM647.37 141.05L690.67 166.05L690.67 216.05L647.37 241.05L604.06 216.05L604.06 166.05zM690.67 216.05L733.97 241.05L733.97 291.05L690.67 316.05L647.37 291.05L647.37 241.05zM647.37 291.05L690.67 316.05L690.67 366.05L647.37 391.05L604.06 366.05L604.06 316.05zM690.67 366.05L733.97 391.05L733.97 441.05L690.67 466.05L647.37 441.05L647.37 391.05zM690.67 666.05L733.97 691.05L733.97 741.05L690.67 766.05L647.37 741.05L647.37 691.05zM690.67 966.05L733.97 991.05L733.97 1041.05L690.67 1066.05L647.37 1041.05L647.37 991.05zM777.27 66.05L820.58 91.05L820.58 141.05L777.27 166.05L733.97 141.05L733.97 91.05zM733.97 141.05L777.27 166.05L777.27 216.05L733.97 241.05L690.67 216.05L690.67 166.05zM733.97 291.05L777.27 316.05L777.27 366.05L733.97 391.05L690.67 366.05L690.67 316.05zM777.27 516.05L820.58 541.05L820.58 591.05L777.27 616.05L733.97 591.05L733.97 541.05zM733.97 591.05L777.27 616.05L777.27 666.05L733.97 691.05L690.67 666.05L690.67 616.05zM777.27 816.05L820.58 841.05L820.58 891.05L777.27 916.05L733.97 891.05L733.97 841.05zM777.27 966.05L820.58 991.05L820.58 1041.05L777.27 1066.05L733.97 1041.05L733.97 991.05zM733.97 1041.05L777.27 1066.05L777.27 1116.05L733.97 1141.05L690.67 1116.05L690.67 1066.05zM820.58 141.05L863.88 166.05L863.88 216.05L820.58 241.05L777.27 216.05L777.27 166.05zM820.58 291.05L863.88 316.05L863.88 366.05L820.58 391.05L777.27 366.05L777.27 316.05zM863.88 366.05L907.18 391.05L907.18 441.05L863.88 466.05L820.58 441.05L820.58 391.05zM863.88 516.05L907.18 541.05L907.18 591.05L863.88 616.05L820.58 591.05L820.58 541.05zM820.58 591.05L863.88 616.05L863.88 666.05L820.58 691.05L777.27 666.05L777.27 616.05zM820.58 741.05L863.88 766.05L863.88 816.05L820.58 841.05L777.27 816.05L777.27 766.05zM820.58 1041.05L863.88 1066.05L863.88 1116.05L820.58 1141.05L777.27 1116.05L777.27 1066.05zM907.18 -8.95L950.48 16.05L950.48 66.05L907.18 91.05L863.88 66.05L863.88 16.05zM907.18 141.05L950.48 166.05L950.48 216.05L907.18 241.05L863.88 216.05L863.88 166.05zM907.18 291.05L950.48 316.05L950.48 366.05L907.18 391.05L863.88 366.05L863.88 316.05zM907.18 591.05L950.48 616.05L950.48 666.05L907.18 691.05L863.88 666.05L863.88 616.05zM950.48 666.05L993.79 691.05L993.79 741.05L950.48 766.05L907.18 741.05L907.18 691.05zM907.18 741.05L950.48 766.05L950.48 816.05L907.18 841.05L863.88 816.05L863.88 766.05zM1037.09 66.05L1080.39 91.05L1080.39 141.05L1037.09 166.05L993.79 141.05L993.79 91.05zM1037.09 366.05L1080.39 391.05L1080.39 441.05L1037.09 466.05L993.79 441.05L993.79 391.05zM993.79 441.05L1037.09 466.05L1037.09 516.05L993.79 541.05L950.48 516.05L950.48 466.05zM993.79 591.05L1037.09 616.05L1037.09 666.05L993.79 691.05L950.48 666.05L950.48 616.05zM1037.09 666.05L1080.39 691.05L1080.39 741.05L1037.09 766.05L993.79 741.05L993.79 691.05zM1037.09 966.05L1080.39 991.05L1080.39 1041.05L1037.09 1066.05L993.79 1041.05L993.79 991.05zM1080.39 141.05L1123.69 166.05L1123.69 216.05L1080.39 241.05L1037.09 216.05L1037.09 166.05zM1123.69 216.05L1167 241.05L1167 291.05L1123.69 316.05L1080.39 291.05L1080.39 241.05zM1080.39 291.05L1123.69 316.05L1123.69 366.05L1080.39 391.05L1037.09 366.05L1037.09 316.05zM1080.39 441.05L1123.69 466.05L1123.69 516.05L1080.39 541.05L1037.09 516.05L1037.09 466.05zM1123.69 516.05L1167 541.05L1167 591.05L1123.69 616.05L1080.39 591.05L1080.39 541.05zM1080.39 741.05L1123.69 766.05L1123.69 816.05L1080.39 841.05L1037.09 816.05L1037.09 766.05zM1080.39 1041.05L1123.69 1066.05L1123.69 1116.05L1080.39 1141.05L1037.09 1116.05L1037.09 1066.05zM1167 141.05L1210.3 166.05L1210.3 216.05L1167 241.05L1123.69 216.05L1123.69 166.05zM1210.3 216.05L1253.6 241.05L1253.6 291.05L1210.3 316.05L1167 291.05L1167 241.05zM1210.3 516.05L1253.6 541.05L1253.6 591.05L1210.3 616.05L1167 591.05L1167 541.05zM1167 591.05L1210.3 616.05L1210.3 666.05L1167 691.05L1123.69 666.05L1123.69 616.05zM1167 1041.05L1210.3 1066.05L1210.3 1116.05L1167 1141.05L1123.69 1116.05L1123.69 1066.05zM1253.6 141.05L1296.9 166.05L1296.9 216.05L1253.6 241.05L1210.3 216.05L1210.3 166.05zM1253.6 441.05L1296.9 466.05L1296.9 516.05L1253.6 541.05L1210.3 516.05L1210.3 466.05zM1253.6 591.05L1296.9 616.05L1296.9 666.05L1253.6 691.05L1210.3 666.05L1210.3 616.05zM1253.6 1041.05L1296.9 1066.05L1296.9 1116.05L1253.6 1141.05L1210.3 1116.05L1210.3 1066.05zM1340.21 -8.95L1383.51 16.05L1383.51 66.05L1340.21 91.05L1296.9 66.05L1296.9 16.05zM1340.21 141.05L1383.51 166.05L1383.51 216.05L1340.21 241.05L1296.9 216.05L1296.9 166.05zM1383.51 216.05L1426.81 241.05L1426.81 291.05L1383.51 316.05L1340.21 291.05L1340.21 241.05zM1383.51 816.05L1426.81 841.05L1426.81 891.05L1383.51 916.05L1340.21 891.05L1340.21 841.05zM1340.21 891.05L1383.51 916.05L1383.51 966.05L1340.21 991.05L1296.9 966.05L1296.9 916.05zM1470.11 216.05L1513.42 241.05L1513.42 291.05L1470.11 316.05L1426.81 291.05L1426.81 241.05zM1470.11 366.05L1513.42 391.05L1513.42 441.05L1470.11 466.05L1426.81 441.05L1426.81 391.05zM1426.81 441.05L1470.11 466.05L1470.11 516.05L1426.81 541.05L1383.51 516.05L1383.51 466.05zM1470.11 666.05L1513.42 691.05L1513.42 741.05L1470.11 766.05L1426.81 741.05L1426.81 691.05zM1426.81 741.05L1470.11 766.05L1470.11 816.05L1426.81 841.05L1383.51 816.05L1383.51 766.05zM1426.81 891.05L1470.11 916.05L1470.11 966.05L1426.81 991.05L1383.51 966.05L1383.51 916.05zM1426.81 1041.05L1470.11 1066.05L1470.11 1116.05L1426.81 1141.05L1383.51 1116.05L1383.51 1066.05zM1556.72 216.05L1600.02 241.05L1600.02 291.05L1556.72 316.05L1513.42 291.05L1513.42 241.05zM1556.72 516.05L1600.02 541.05L1600.02 591.05L1556.72 616.05L1513.42 591.05L1513.42 541.05zM1556.72 666.05L1600.02 691.05L1600.02 741.05L1556.72 766.05L1513.42 741.05L1513.42 691.05zM1513.42 741.05L1556.72 766.05L1556.72 816.05L1513.42 841.05L1470.11 816.05L1470.11 766.05zM1556.72 816.05L1600.02 841.05L1600.02 891.05L1556.72 916.05L1513.42 891.05L1513.42 841.05zM1643.32 66.05L1686.63 91.05L1686.63 141.05L1643.32 166.05L1600.02 141.05L1600.02 91.05zM1643.32 366.05L1686.63 391.05L1686.63 441.05L1643.32 466.05L1600.02 441.05L1600.02 391.05zM1600.02 441.05L1643.32 466.05L1643.32 516.05L1600.02 541.05L1556.72 516.05L1556.72 466.05zM1643.32 516.05L1686.63 541.05L1686.63 591.05L1643.32 616.05L1600.02 591.05L1600.02 541.05zM1643.32 666.05L1686.63 691.05L1686.63 741.05L1643.32 766.05L1600.02 741.05L1600.02 691.05zM1600.02 741.05L1643.32 766.05L1643.32 816.05L1600.02 841.05L1556.72 816.05L1556.72 766.05zM1643.32 966.05L1686.63 991.05L1686.63 1041.05L1643.32 1066.05L1600.02 1041.05L1600.02 991.05zM1600.02 1041.05L1643.32 1066.05L1643.32 1116.05L1600.02 1141.05L1556.72 1116.05L1556.72 1066.05zM1729.93 66.05L1773.23 91.05L1773.23 141.05L1729.93 166.05L1686.63 141.05L1686.63 91.05zM1686.63 141.05L1729.93 166.05L1729.93 216.05L1686.63 241.05L1643.32 216.05L1643.32 166.05zM1729.93 216.05L1773.23 241.05L1773.23 291.05L1729.93 316.05L1686.63 291.05L1686.63 241.05zM1686.63 291.05L1729.93 316.05L1729.93 366.05L1686.63 391.05L1643.32 366.05L1643.32 316.05zM1729.93 366.05L1773.23 391.05L1773.23 441.05L1729.93 466.05L1686.63 441.05L1686.63 391.05zM1686.63 441.05L1729.93 466.05L1729.93 516.05L1686.63 541.05L1643.32 516.05L1643.32 466.05zM1729.93 516.05L1773.23 541.05L1773.23 591.05L1729.93 616.05L1686.63 591.05L1686.63 541.05zM1686.63 591.05L1729.93 616.05L1729.93 666.05L1686.63 691.05L1643.32 666.05L1643.32 616.05zM1729.93 666.05L1773.23 691.05L1773.23 741.05L1729.93 766.05L1686.63 741.05L1686.63 691.05zM1686.63 741.05L1729.93 766.05L1729.93 816.05L1686.63 841.05L1643.32 816.05L1643.32 766.05zM1729.93 816.05L1773.23 841.05L1773.23 891.05L1729.93 916.05L1686.63 891.05L1686.63 841.05zM1686.63 1041.05L1729.93 1066.05L1729.93 1116.05L1686.63 1141.05L1643.32 1116.05L1643.32 1066.05zM1773.23 291.05L1816.53 316.05L1816.53 366.05L1773.23 391.05L1729.93 366.05L1729.93 316.05zM1773.23 441.05L1816.53 466.05L1816.53 516.05L1773.23 541.05L1729.93 516.05L1729.93 466.05zM1816.53 816.05L1859.84 841.05L1859.84 891.05L1816.53 916.05L1773.23 891.05L1773.23 841.05zM1816.53 966.05L1859.84 991.05L1859.84 1041.05L1816.53 1066.05L1773.23 1041.05L1773.23 991.05zM1859.84 -8.95L1903.14 16.05L1903.14 66.05L1859.84 91.05L1816.53 66.05L1816.53 16.05zM1903.14 216.05L1946.44 241.05L1946.44 291.05L1903.14 316.05L1859.84 291.05L1859.84 241.05zM1903.14 366.05L1946.44 391.05L1946.44 441.05L1903.14 466.05L1859.84 441.05L1859.84 391.05zM1903.14 666.05L1946.44 691.05L1946.44 741.05L1903.14 766.05L1859.84 741.05L1859.84 691.05zM1903.14 816.05L1946.44 841.05L1946.44 891.05L1903.14 916.05L1859.84 891.05L1859.84 841.05zM1946.44 141.05L1989.74 166.05L1989.74 216.05L1946.44 241.05L1903.14 216.05L1903.14 166.05zM1989.74 216.05L2033.05 241.05L2033.05 291.05L1989.74 316.05L1946.44 291.05L1946.44 241.05zM1989.74 366.05L2033.05 391.05L2033.05 441.05L1989.74 466.05L1946.44 441.05L1946.44 391.05zM1989.74 516.05L2033.05 541.05L2033.05 591.05L1989.74 616.05L1946.44 591.05L1946.44 541.05zM1946.44 591.05L1989.74 616.05L1989.74 666.05L1946.44 691.05L1903.14 666.05L1903.14 616.05zM1989.74 666.05L2033.05 691.05L2033.05 741.05L1989.74 766.05L1946.44 741.05L1946.44 691.05zM1946.44 891.05L1989.74 916.05L1989.74 966.05L1946.44 991.05L1903.14 966.05L1903.14 916.05z" stroke="rgba(6, 80, 156, 0.93)" stroke-width="2"></path></g><defs><mask id="SvgjsMask1031"><rect width="1920" height="1080" fill="#ffffff"></rect></mask></defs></svg>